<?xml version="1.0" encoding="UTF-8" standalone="no"?>
<svg width="633px" height="225px" viewBox="0 0 633 225" version="1.1" xmlns="http://www.w3.org/2000/svg" xmlns:xlink="http://www.w3.org/1999/xlink" xmlns:sketch="http://www.bohemiancoding.com/sketch/ns">
    <!-- Generator: Sketch 3.3.3 (12081) - http://www.bohemiancoding.com/sketch -->
    <title>subtitle</title>
    <desc>Created with Sketch.</desc>
    <defs>
        <filter x="-50%" y="-50%" width="200%" height="200%" filterUnits="objectBoundingBox" id="filter-1">
            <feOffset dx="0" dy="0" in="SourceAlpha" result="shadowOffsetOuter1"></feOffset>
            <feGaussianBlur stdDeviation="50" in="shadowOffsetOuter1" result="shadowBlurOuter1"></feGaussianBlur>
            <feColorMatrix values="0 0 0 0 0   0 0 0 0 0   0 0 0 0 0  0 0 0 0.35 0" in="shadowBlurOuter1" type="matrix" result="shadowMatrixOuter1"></feColorMatrix>
            <feMerge>
                <feMergeNode in="shadowMatrixOuter1"></feMergeNode>
                <feMergeNode in="SourceGraphic"></feMergeNode>
            </feMerge>
        </filter>
    </defs>
    <g id="Welcome" stroke="none" stroke-width="1" fill="none" fill-rule="evenodd" sketch:type="MSPage">
        <g id="Desktop-HD-Copy" sketch:type="MSArtboardGroup" transform="translate(0.000000, -332.000000)" filter="url(#filter-1)" fill="#FFFFFF">
            <g id="Hero" sketch:type="MSLayerGroup">
                <g id="Rectangle-3-+-是的，美餐可以预订了。-+-从不忘美食-+-忘记开会/忘记打卡/忘记密码-copy" transform="translate(60.000000, 427.000000)" sketch:type="MSShapeGroup">
                    <g id="从不忘美食-+-忘记开会/忘记打卡/忘记密码-copy" transform="translate(13.000000, 0.000000)">
                        <path d="M24.576,26.136 L27.96,23.76 L23.604,18.288 L35.952,18.288 L35.952,14.184 L15.396,14.184 L15.396,8.748 L38.652,8.748 L38.652,4.572 L26.124,4.572 C25.368,3.168 24.36,1.404 23.568,0.144 L19.464,1.872 C19.788,2.484 20.436,3.564 21.012,4.572 L7.224,4.572 L7.224,8.748 L10.752,8.748 L10.752,18.288 L22.308,18.288 L20.04,19.872 C21.084,21.276 23.568,24.624 24.576,26.136 L24.576,26.136 Z M31.992,24.84 L27.96,23.904 C27.996,24.804 27.852,26.496 27.816,27.072 C27.78,28.44 27.384,28.728 25.908,28.728 L20.436,28.728 C19.14,28.728 19.14,28.332 19.14,26.748 L19.14,20.16 L14.676,20.16 L14.676,28.476 C14.676,31.644 15.684,32.832 18.924,32.832 L26.412,32.832 C30.264,32.832 31.452,31.752 31.74,28.836 C31.884,27.72 31.956,25.74 31.992,24.84 L31.992,24.84 Z M36.204,30.78 L39.804,28.44 C38.292,26.1 35.556,21.924 33.9,19.584 L30.444,21.672 C32.028,24.012 34.692,28.116 36.204,30.78 L36.204,30.78 Z M14.316,21.492 L10.356,19.98 C9.24,23.076 7.584,26.388 6,28.98 L9.744,31.14 C11.328,28.368 13.128,24.588 14.316,21.492 L14.316,21.492 Z M75.192,22.824 L70.8,21.96 C70.8,22.572 70.692,25.524 70.62,26.172 C70.44,28.224 70.296,28.404 67.92,28.404 L62.556,28.404 C60.324,28.404 59.856,28.08 59.856,26.028 L59.856,17.712 L73.104,17.712 L73.104,2.592 L55.356,2.592 L55.356,6.984 L68.784,6.984 L68.784,13.428 L55.572,13.428 L55.572,26.676 L54.492,22.788 L51.18,25.308 L51.18,11.556 L43.044,11.556 L43.044,15.84 L46.86,15.84 L46.86,26.928 C46.86,28.008 46.86,28.62 46.104,29.232 L48.912,32.544 C50.424,30.996 54.6,27.972 55.572,27.288 C55.572,31.572 56.724,32.688 60.9,32.688 L69.648,32.688 C73.968,32.688 74.616,31.716 74.904,27.612 C75.012,26.136 75.12,24.336 75.192,22.824 L75.192,22.824 Z M49.776,10.548 L53.304,7.668 C51.936,5.868 49.416,2.844 48.12,1.332 L44.592,3.924 C45.888,5.508 48.444,8.82 49.776,10.548 L49.776,10.548 Z M99.42,32.868 L103.812,32.868 L103.812,19.332 L110.94,19.332 L110.94,15.156 L103.812,15.156 L103.812,6.912 L109.392,6.912 L109.392,2.736 L80.34,2.736 L80.34,6.912 L86.496,6.912 L86.496,15.156 L78.864,15.156 L78.864,19.332 L86.352,19.332 C85.956,24.336 84.372,26.856 79.26,30.924 L82.716,34.092 C88.368,29.196 90.276,26.028 90.744,19.332 L99.42,19.332 L99.42,32.868 Z M90.888,14.868 L90.888,6.912 L99.42,6.912 L99.42,15.156 L90.888,15.156 L90.888,14.868 Z M141.432,33.48 L144.744,30.528 C142.368,27.864 139.344,24.552 137.436,22.392 L146.004,22.392 L146.004,18.36 L115.98,18.36 L115.98,22.392 L124.728,22.392 C123.144,24.3 121.308,26.208 120.336,26.892 C119.22,27.648 119.004,28.008 117.924,28.476 L118.788,32.436 C123.648,31.932 135.132,31.428 139.596,31.356 C140.316,32.148 140.928,32.904 141.432,33.48 L141.432,33.48 Z M140.676,15.336 L140.676,13.248 C142.26,14.256 143.916,15.192 145.608,16.02 L147.588,11.952 C140.892,8.82 135.888,4.824 132.756,0.468 L129.372,0.468 C126.168,4.932 121.164,8.964 114.396,12.096 L116.376,16.128 C118.104,15.264 119.796,14.328 121.38,13.32 L121.38,15.336 L140.676,15.336 Z M131.028,5.364 C132.612,7.2 135.096,9.396 137.976,11.448 L124.152,11.448 C127.068,9.36 129.48,7.236 131.028,5.364 L131.028,5.364 Z M130.308,22.392 L136.896,22.392 L133.836,24.732 L136.176,27.468 L125.052,27.9 C126.348,26.964 128.436,24.768 130.308,22.392 L130.308,22.392 Z M150.288,31.212 L155.22,31.212 L164.544,3.492 L159.612,3.492 L150.288,31.212 Z M185.496,26.136 L188.88,23.76 L184.524,18.288 L196.872,18.288 L196.872,14.184 L176.316,14.184 L176.316,8.748 L199.572,8.748 L199.572,4.572 L187.044,4.572 C186.288,3.168 185.28,1.404 184.488,0.144 L180.384,1.872 C180.708,2.484 181.356,3.564 181.932,4.572 L168.144,4.572 L168.144,8.748 L171.672,8.748 L171.672,18.288 L183.228,18.288 L180.96,19.872 C182.004,21.276 184.488,24.624 185.496,26.136 L185.496,26.136 Z M192.912,24.84 L188.88,23.904 C188.916,24.804 188.772,26.496 188.736,27.072 C188.7,28.44 188.304,28.728 186.828,28.728 L181.356,28.728 C180.06,28.728 180.06,28.332 180.06,26.748 L180.06,20.16 L175.596,20.16 L175.596,28.476 C175.596,31.644 176.604,32.832 179.844,32.832 L187.332,32.832 C191.184,32.832 192.372,31.752 192.66,28.836 C192.804,27.72 192.876,25.74 192.912,24.84 L192.912,24.84 Z M197.124,30.78 L200.724,28.44 C199.212,26.1 196.476,21.924 194.82,19.584 L191.364,21.672 C192.948,24.012 195.612,28.116 197.124,30.78 L197.124,30.78 Z M175.236,21.492 L171.276,19.98 C170.16,23.076 168.504,26.388 166.92,28.98 L170.664,31.14 C172.248,28.368 174.048,24.588 175.236,21.492 L175.236,21.492 Z M236.112,22.824 L231.72,21.96 C231.72,22.572 231.612,25.524 231.54,26.172 C231.36,28.224 231.216,28.404 228.84,28.404 L223.476,28.404 C221.244,28.404 220.776,28.08 220.776,26.028 L220.776,17.712 L234.024,17.712 L234.024,2.592 L216.276,2.592 L216.276,6.984 L229.704,6.984 L229.704,13.428 L216.492,13.428 L216.492,26.676 L215.412,22.788 L212.1,25.308 L212.1,11.556 L203.964,11.556 L203.964,15.84 L207.78,15.84 L207.78,26.928 C207.78,28.008 207.78,28.62 207.024,29.232 L209.832,32.544 C211.344,30.996 215.52,27.972 216.492,27.288 C216.492,31.572 217.644,32.688 221.82,32.688 L230.568,32.688 C234.888,32.688 235.536,31.716 235.824,27.612 C235.932,26.136 236.04,24.336 236.112,22.824 L236.112,22.824 Z M210.696,10.548 L214.224,7.668 C212.856,5.868 210.336,2.844 209.04,1.332 L205.512,3.924 C206.808,5.508 209.364,8.82 210.696,10.548 L210.696,10.548 Z M249.18,1.152 L244.788,1.152 L244.788,6.912 L240.18,6.912 L240.18,11.088 L244.788,11.088 L244.788,16.956 C242.736,17.532 240.792,18.036 239.388,18.36 L240.252,22.608 C241.368,22.248 242.988,21.708 244.788,21.168 L244.788,27.18 C244.788,28.512 244.572,28.8 242.844,28.8 L240.144,28.8 L241.008,33.084 L244.212,33.084 C248.172,33.084 249.18,32.256 249.18,28.692 L249.18,19.836 C250.944,19.296 252.6,18.792 253.824,18.468 L253.32,14.4 C252.096,14.796 250.692,15.264 249.18,15.696 L249.18,11.088 L253.5,11.088 L253.5,6.912 L249.18,6.912 L249.18,1.152 Z M272.04,7.308 L272.04,3.024 L253.896,3.024 L253.896,7.308 L262.032,7.308 L262.032,26.928 C262.032,28.224 261.6,28.584 259.656,28.584 L255.84,28.584 L256.704,32.868 L260.844,32.868 C265.056,32.868 266.424,31.68 266.424,28.08 L266.424,7.308 L272.04,7.308 Z M304.62,9.108 L304.62,5.004 L292.92,5.004 L292.92,1.188 L288.6,1.188 L288.6,13.428 L276.036,13.428 L276.036,17.352 L307.644,17.352 L307.644,13.428 L292.92,13.428 L292.92,9.108 L304.62,9.108 Z M303.792,28.836 L306.096,25.02 C303.72,23.616 297.456,20.16 294.288,18.54 L292.992,20.808 L292.992,17.928 L288.6,17.928 L288.6,32.904 L292.992,32.904 L292.992,22.464 C296.232,24.264 301.02,27.072 303.792,28.836 L303.792,28.836 Z M311.208,31.212 L316.14,31.212 L325.464,3.492 L320.532,3.492 L311.208,31.212 Z M346.416,26.136 L349.8,23.76 L345.444,18.288 L357.792,18.288 L357.792,14.184 L337.236,14.184 L337.236,8.748 L360.492,8.748 L360.492,4.572 L347.964,4.572 C347.208,3.168 346.2,1.404 345.408,0.144 L341.304,1.872 C341.628,2.484 342.276,3.564 342.852,4.572 L329.064,4.572 L329.064,8.748 L332.592,8.748 L332.592,18.288 L344.148,18.288 L341.88,19.872 C342.924,21.276 345.408,24.624 346.416,26.136 L346.416,26.136 Z M353.832,24.84 L349.8,23.904 C349.836,24.804 349.692,26.496 349.656,27.072 C349.62,28.44 349.224,28.728 347.748,28.728 L342.276,28.728 C340.98,28.728 340.98,28.332 340.98,26.748 L340.98,20.16 L336.516,20.16 L336.516,28.476 C336.516,31.644 337.524,32.832 340.764,32.832 L348.252,32.832 C352.104,32.832 353.292,31.752 353.58,28.836 C353.724,27.72 353.796,25.74 353.832,24.84 L353.832,24.84 Z M358.044,30.78 L361.644,28.44 C360.132,26.1 357.396,21.924 355.74,19.584 L352.284,21.672 C353.868,24.012 356.532,28.116 358.044,30.78 L358.044,30.78 Z M336.156,21.492 L332.196,19.98 C331.08,23.076 329.424,26.388 327.84,28.98 L331.584,31.14 C333.168,28.368 334.968,24.588 336.156,21.492 L336.156,21.492 Z M397.032,22.824 L392.64,21.96 C392.64,22.572 392.532,25.524 392.46,26.172 C392.28,28.224 392.136,28.404 389.76,28.404 L384.396,28.404 C382.164,28.404 381.696,28.08 381.696,26.028 L381.696,17.712 L394.944,17.712 L394.944,2.592 L377.196,2.592 L377.196,6.984 L390.624,6.984 L390.624,13.428 L377.412,13.428 L377.412,26.676 L376.332,22.788 L373.02,25.308 L373.02,11.556 L364.884,11.556 L364.884,15.84 L368.7,15.84 L368.7,26.928 C368.7,28.008 368.7,28.62 367.944,29.232 L370.752,32.544 C372.264,30.996 376.44,27.972 377.412,27.288 C377.412,31.572 378.564,32.688 382.74,32.688 L391.488,32.688 C395.808,32.688 396.456,31.716 396.744,27.612 C396.852,26.136 396.96,24.336 397.032,22.824 L397.032,22.824 Z M371.616,10.548 L375.144,7.668 C373.776,5.868 371.256,2.844 369.96,1.332 L366.432,3.924 C367.728,5.508 370.284,8.82 371.616,10.548 L371.616,10.548 Z M401.856,10.764 L405.096,10.764 C403.98,12.492 402.36,14.292 400.92,15.66 L403.872,18.396 C405.492,16.668 407.652,13.896 408.768,12.024 L408.768,17.316 C406.248,18.216 403.476,19.008 400.308,19.8 L401.82,23.4 C404.556,22.644 407.04,21.888 409.344,21.096 C409.992,22.284 411.288,22.644 413.412,22.644 L421.512,22.644 C424.968,22.644 426.156,21.78 426.444,18.792 C426.516,17.892 426.66,16.38 426.696,15.624 L422.664,14.688 C422.664,15.192 422.592,16.164 422.556,16.632 C422.484,18.468 422.16,18.828 420.108,18.828 L414.96,18.828 C419.64,16.704 423.384,14.184 426.804,10.944 L424.212,8.136 C422.304,9.972 420.288,11.556 418.02,12.996 L420.18,10.476 C419.28,9.72 417.948,8.604 416.688,7.632 L427.56,7.632 L427.56,10.728 L431.88,10.728 L431.88,3.816 L419.64,3.816 C418.92,2.556 417.84,0.54 417.588,0 L413.376,1.008 C413.556,1.44 414.24,2.7 414.816,3.816 L401.856,3.816 L401.856,10.764 Z M425.256,32.868 L429.576,32.868 L429.576,23.724 L425.256,23.724 L425.256,28.08 L419.028,28.08 L419.028,23.184 L414.564,23.184 L414.564,28.08 L408.408,28.08 L408.408,23.94 L404.016,23.94 L404.016,32.22 L425.256,32.22 L425.256,32.868 Z M412.872,9.864 L408.768,9.864 L408.768,11.844 L406.176,10.116 L406.176,7.632 L413.772,7.632 L412.62,9 C414.024,10.188 416.22,12.06 417.516,13.284 C416.076,14.148 414.564,14.94 412.872,15.696 L412.872,9.864 Z M430.44,19.584 L433.248,16.992 C431.952,15.624 429.036,12.708 427.704,11.376 L425.112,13.896 C426.516,15.264 429.216,18.216 430.44,19.584 L430.44,19.584 Z M456.036,29.052 L456.828,33.12 L461.58,33.12 C466.08,33.12 467.376,32.076 467.7,27.504 C467.772,26.676 468.276,16.164 468.312,15.336 L464.748,15.336 L466.008,2.412 L451.14,2.412 L451.14,6.48 L461.328,6.48 L460.428,15.336 L455.424,15.336 L456.144,7.488 L452.04,7.236 L450.816,19.368 L463.92,19.368 C463.884,20.196 463.452,25.74 463.38,26.568 C463.308,28.548 462.768,29.052 460.212,29.052 L456.036,29.052 Z M439.116,31.824 L442.932,31.824 L442.932,30.276 L449.448,30.276 L449.448,12.888 L443.724,12.888 C444.516,11.052 445.128,9.144 445.704,7.056 L450.168,7.056 L450.168,2.952 L437.172,2.952 L437.172,7.056 L441.276,7.056 C440.124,11.124 438,15.804 435.876,18.576 L437.64,23.184 C438.144,22.5 438.648,21.852 439.116,21.168 L439.116,31.824 Z M462.804,26.172 L462.804,22.104 L449.916,22.104 L449.916,26.172 L462.804,26.172 Z M442.932,16.992 L445.56,16.992 L445.56,26.208 L442.932,26.208 L442.932,16.992 Z" id="subtitle"></path>
                    </g>
                </g>
            </g>
        </g>
    </g>
</svg>
