<?xml version="1.0" encoding="UTF-8" standalone="no"?>
<svg width="517px" height="256px" viewBox="0 0 517 256" version="1.1" xmlns="http://www.w3.org/2000/svg" xmlns:xlink="http://www.w3.org/1999/xlink" xmlns:sketch="http://www.bohemiancoding.com/sketch/ns">
    <!-- Generator: Sketch 3.3.3 (12081) - http://www.bohemiancoding.com/sketch -->
    <title>title</title>
    <desc>Created with Sketch.</desc>
    <defs>
        <filter x="-50%" y="-50%" width="200%" height="200%" filterUnits="objectBoundingBox" id="filter-1">
            <feOffset dx="0" dy="0" in="SourceAlpha" result="shadowOffsetOuter1"></feOffset>
            <feGaussianBlur stdDeviation="50" in="shadowOffsetOuter1" result="shadowBlurOuter1"></feGaussianBlur>
            <feColorMatrix values="0 0 0 0 0   0 0 0 0 0   0 0 0 0 0  0 0 0 0.35 0" in="shadowBlurOuter1" type="matrix" result="shadowMatrixOuter1"></feColorMatrix>
            <feMerge>
                <feMergeNode in="shadowMatrixOuter1"></feMergeNode>
                <feMergeNode in="SourceGraphic"></feMergeNode>
            </feMerge>
        </filter>
    </defs>
    <g id="Welcome" stroke="none" stroke-width="1" fill="none" fill-rule="evenodd" sketch:type="MSPage">
        <g id="Desktop-HD-Copy" sketch:type="MSArtboardGroup" transform="translate(0.000000, -381.000000)" filter="url(#filter-1)" fill="#FFFFFF">
            <g id="Hero" sketch:type="MSLayerGroup">
                <g id="Rectangle-3-+-是的，美餐可以预订了。-+-从不忘美食-+-忘记开会/忘记打卡/忘记密码-copy" transform="translate(60.000000, 427.000000)" sketch:type="MSShapeGroup">
                    <g id="从不忘美食-+-忘记开会/忘记打卡/忘记密码-copy" transform="translate(13.000000, 0.000000)">
                        <path d="M25.496,49.768 L16.28,49.768 C16.424,51.424 16.136,56.464 15.992,59.56 C15.416,82.24 12.32,91.024 0.512,107.152 L8.576,112.336 C16.352,101.608 20.672,93.184 22.976,81.664 C25.64,85.48 28.232,89.512 30.104,92.464 L36.512,87.136 C33.416,93.976 28.592,100.312 21.032,107.872 L28.016,114.352 C37.52,104.632 42.848,95.776 46.016,86.2 C49.256,97.216 54.728,105.784 62.432,114.28 L69.344,107.656 C57.752,96.352 51.56,83.536 49.976,64.744 C50.192,62.728 50.264,60.64 50.408,58.48 C50.552,56.896 50.84,51.424 50.84,49.696 L41.624,49.696 C41.624,51.496 41.624,57.04 41.552,58.48 C41.336,70.144 40.184,78.568 36.872,86.272 C34.064,81.952 28.232,73.816 24.632,68.992 C24.848,66.112 24.992,63.16 25.136,59.848 C25.208,58.912 25.496,51.496 25.496,49.768 L25.496,49.768 Z M133.28,98.656 L139.76,91.24 C133.928,85.984 122.48,76.264 116.144,71.152 L111.464,76.84 L111.464,71.656 L108.368,71.656 C110.96,68.272 113.264,64.672 115.424,61 L136.664,61 L136.664,52.216 L77.552,52.216 L77.552,61 L104.984,61 C98.36,71.872 87.92,82.744 74.24,91.744 L80.288,99.52 C88.784,92.968 96.272,86.128 102.68,78.784 L102.68,112.264 L111.464,112.264 L111.464,78.496 C117.8,84.112 127.664,92.968 133.28,98.656 L133.28,98.656 Z M182.24,99.16 L189.008,94.408 L180.296,83.464 L204.992,83.464 L204.992,75.256 L163.88,75.256 L163.88,64.384 L210.392,64.384 L210.392,56.032 L185.336,56.032 C183.824,53.224 181.808,49.696 180.224,47.176 L172.016,50.632 C172.664,51.856 173.96,54.016 175.112,56.032 L147.536,56.032 L147.536,64.384 L154.592,64.384 L154.592,83.464 L177.704,83.464 L173.168,86.632 C175.256,89.44 180.224,96.136 182.24,99.16 L182.24,99.16 Z M197.072,96.568 L189.008,94.696 C189.08,96.496 188.792,99.88 188.72,101.032 C188.648,103.768 187.856,104.344 184.904,104.344 L173.96,104.344 C171.368,104.344 171.368,103.552 171.368,100.384 L171.368,87.208 L162.44,87.208 L162.44,103.84 C162.44,110.176 164.456,112.552 170.936,112.552 L185.912,112.552 C193.616,112.552 195.992,110.392 196.568,104.56 C196.856,102.328 197,98.368 197.072,96.568 L197.072,96.568 Z M205.496,108.448 L212.696,103.768 C209.672,99.088 204.2,90.736 200.888,86.056 L193.976,90.232 C197.144,94.912 202.472,103.12 205.496,108.448 L205.496,108.448 Z M161.72,89.872 L153.8,86.848 C151.568,93.04 148.256,99.664 145.088,104.848 L152.576,109.168 C155.744,103.624 159.344,96.064 161.72,89.872 L161.72,89.872 Z M281.96,84.976 L281.96,77.632 L255.248,77.632 L255.248,74.104 L276.92,74.104 L276.92,67.12 L255.248,67.12 L255.248,63.448 L279.224,63.448 L279.224,56.464 L265.832,56.464 C267.416,54.736 268.856,52.936 270.008,51.496 L262.952,46.888 C261.44,49.192 257.624,53.728 255.176,56.464 L242.792,56.464 L245.096,54.808 L237.248,46.816 L231.488,51.712 L235.808,56.464 L221.912,56.464 L221.912,63.448 L246.176,63.448 L246.176,67.12 L224.216,67.12 L224.216,74.104 L246.176,74.104 L246.176,77.632 L219.248,77.632 L219.248,84.976 L281.96,84.976 Z M255.248,86.128 L245.96,86.128 L245.816,89.512 L221.192,89.512 L221.192,96.712 L243.296,96.712 C239.912,100.6 232.352,104.2 217.88,106.504 L221.48,115 C237.104,111.76 246.176,107.08 250.856,101.536 C256.328,107.368 265.76,112.264 279.728,114.784 L283.328,106.216 C269.936,104.272 261.8,100.816 257.264,96.712 L279.944,96.712 L279.944,89.512 L255.104,89.512 L255.248,86.128 Z M349.136,96.712 L345.392,91.024 L344.672,91.456 L344.672,71.656 C347.264,72.952 349.928,74.176 352.664,75.256 L355.832,67.336 C342.44,62.296 332.36,55.456 325.88,47.752 L319.256,47.752 C312.632,55.672 302.408,62.584 288.944,67.696 L292.472,75.616 C294.776,74.68 297.008,73.6 299.168,72.52 L299.168,103.624 C299.168,104.272 299.168,105.856 297.008,107.44 L300.032,114.784 C306.8,112.696 320.48,109.312 323,109.096 L322.784,104.272 C332.144,107.656 343.304,111.904 348.848,113.992 L351.944,107.008 L338.408,102.328 C342.08,100.528 345.896,98.512 349.136,96.712 L349.136,96.712 Z M307.736,74.968 L336.032,74.968 L336.032,78.136 L307.736,78.136 L307.736,74.968 Z M307.736,87.928 L307.736,84.904 L336.032,84.904 L336.032,87.928 L307.736,87.928 Z M328.688,66.76 C327.32,64.672 324.296,60.136 323.072,58.48 L316.016,62.224 C318.68,60.208 320.912,58.264 322.64,56.464 C326.096,60.208 331.856,64.456 338.552,68.344 L325.448,68.344 L328.688,66.76 Z M316.664,94.696 L338.696,94.696 C335.672,96.352 332.648,97.936 329.768,99.304 L316.664,94.696 Z M317.384,102.256 L307.736,104.704 L307.736,94.696 L312.632,94.696 L310.4,99.736 L317.384,102.256 Z M320.12,68.344 L306.8,68.344 C310.184,66.328 313.352,64.24 316.016,62.224 C317.024,63.592 318.752,66.184 320.12,68.344 L320.12,68.344 Z" id="title"></path>
                    </g>
                </g>
            </g>
        </g>
    </g>
</svg>
